<?xml version="1.0" encoding="utf-8"?>
<!-- Generator: Adobe Illustrator 25.2.1, SVG Export Plug-In . SVG Version: 6.00 Build 0)  -->
<svg version="1.1" id="Capa_1" xmlns="http://www.w3.org/2000/svg" xmlns:xlink="http://www.w3.org/1999/xlink" x="0px" y="0px"
	 viewBox="0 0 396.7 396.7" style="enable-background:new 0 0 396.7 396.7;" xml:space="preserve">
<style type="text/css">
	.st0{fill:#FFD114;}
</style>
<g>
	<path class="st0" d="M198.3,0C145.7,0,95.3,20.9,58.1,58.1C20.9,95.3,0,145.7,0,198.3s20.9,103.1,58.1,140.2
		c37.2,37.2,87.6,58.1,140.2,58.1s103.1-20.9,140.2-58.1c37.2-37.2,58.1-87.6,58.1-140.2S375.8,95.3,338.6,58.1
		C301.4,20.9,250.9,0,198.3,0L198.3,0z M308.7,140L175,273.7c-2.2,2.2-5.2,3.4-8.3,3.4c-3.1,0-6.1-1.2-8.3-3.4l-70-70
		c-4.7-4.6-4.8-12.1-0.2-16.8c4.6-4.7,12.1-4.8,16.8-0.2l61.7,61.8L291.7,123c4.7-4.7,12.3-4.7,17,0
		C313.4,127.7,313.4,135.3,308.7,140L308.7,140z"/>
</g>
</svg>
