<?xml version="1.0" encoding="utf-8"?>
<!-- Generator: Adobe Illustrator 25.2.1, SVG Export Plug-In . SVG Version: 6.00 Build 0)  -->
<svg version="1.1" id="Capa_1" xmlns="http://www.w3.org/2000/svg" xmlns:xlink="http://www.w3.org/1999/xlink" x="0px" y="0px"
	 viewBox="0 0 505.1 447" style="enable-background:new 0 0 505.1 447;" xml:space="preserve">
<path d="M491.6,25.1c-3.6-4-7.4-7.7-10.8-11.1c-8.1-7.9-21.6-18.7-33.4-11.8C364.9,50,222.7,133.4,198.2,154.8
	c-12.5,10.8-22.1,23.8-28.2,37.6c-1.9,4.3-6.9,6.1-11.2,4.1c-12.4-5.9-27.7-4.3-38.8,5.3l-5.3,4.7c-9.7,8.4-13.7,21-11.8,32.8
	c0.7,4.3-2.2,8.4-6.5,9.3c-13.6,2.8-26.2,9-36.8,18.2C25.5,296.4,2.8,422.2,0.3,436.4l-0.2,0.9c-0.9,5.2,3.2,9.8,8.4,9.7l0.9,0
	c14.4-0.5,142.1-5.5,176.4-35.3c10.8-9.4,18.4-21.1,23-33.9c1.5-4.1,5.9-6.4,10.1-5.1c3.5,1.1,7.1,1.6,10.7,1.6
	c8.3,0,16.7-2.9,23.5-8.8l5.3-4.6c7.2-6.3,11.5-15,12.2-24.5c0.3-4.6-0.2-9.1-1.6-13.3c-1.4-4.5,1.1-9.3,5.6-10.5
	c14.2-3.9,28.4-11.4,41.1-22.5c24.6-21.4,126.9-150.6,185.7-225.7c3.9-5,4.8-12.1,2.3-19.9C501.6,37.5,496.9,31,491.6,25.1
	L491.6,25.1z M174,398.1c-21,18.3-97.4,26.8-143.3,29.8c-5.4,0.4-9.7-4.6-8.6-9.9c9.3-45,28.4-119.5,49.4-137.8
	c11.8-10.2,26.8-15.7,42.9-15.7c0,0,0,0,0,0c2.3,0,4.5,1.1,6,2.8l73.1,84c1.6,1.8,2.3,4.2,2,6.5C193.2,373.3,186.1,387.6,174,398.1
	L174,398.1z M246.6,347.3l-5.3,4.6c-7.4,6.5-18.7,5.7-25.1-1.8l-91.4-105.1c-3.1-3.6-4.7-8.2-4.3-12.9c0.3-4.8,2.5-9.1,6.1-12.2
	l5.3-4.7c3.4-2.9,7.5-4.4,11.7-4.4c5,0,9.9,2.1,13.5,6.1l91.4,105.1c3.1,3.6,4.7,8.2,4.3,12.9C252.4,339.8,250.2,344.2,246.6,347.3
	L246.6,347.3z M487.3,53.3c-47,60.1-159,202-183.3,223.2c-15.2,13.2-32.8,20.5-48.5,21.5c-2.6,0.2-5.1-0.9-6.8-2.8l-64.9-74.6
	c-1.7-1.9-2.4-4.5-1.9-7c0.1-0.6,0.2-1.2,0.4-1.8c3.7-15.7,13.5-31.2,27.6-43.5c24.2-21.1,179.4-111.8,245.8-150.2
	c2.2-1.3,10.2,6.6,11.5,7.8c4.9,4.5,9.2,10,13.8,14.7C483.5,43.2,488.5,49.3,487.3,53.3L487.3,53.3z"/>
</svg>
