<svg width="22" height="22" viewBox="0 0 22 22" xmlns="http://www.w3.org/2000/svg">
<path d="M9.92669 13.828L14.1687 9.58603L14.1686 9.58611C14.414 9.33213 14.5071 8.96751 14.4138 8.62697C14.3204 8.28643 14.0543 8.02033 13.7138 7.92697C13.3732 7.83361 13.0086 7.92673 12.7546 8.17213L8.51263 12.4141C8.31966 12.6005 8.20967 12.8565 8.20731 13.1247C8.20505 13.3929 8.31052 13.6508 8.50021 13.8405C8.68991 14.0302 8.94779 14.1357 9.21599 14.1334C9.48419 14.1311 9.74029 14.0211 9.92661 13.8281L9.92669 13.828Z" fill="#888A91"/>
<path d="M15.1236 12.116C14.8824 12.3488 14.7448 12.6689 14.7418 13.0041C14.7388 13.3394 14.8706 13.6619 15.1077 13.899C15.3446 14.1361 15.667 14.2681 16.0023 14.2653C16.3376 14.2625 16.6577 14.125 16.8906 13.884L20.2246 10.551C21.3432 9.43252 21.9717 7.91556 21.9717 6.33376C21.9718 4.75204 21.3435 3.23496 20.2252 2.11636C19.1067 0.997843 17.5898 0.369403 16.008 0.369263C14.4262 0.369185 12.9092 0.997463 11.7906 2.1159L8.45657 5.4489C8.14071 5.76476 8.01735 6.22508 8.13297 6.65648C8.24859 7.08788 8.58555 7.42492 9.01695 7.54046C9.44843 7.65609 9.90875 7.53273 10.2245 7.21694L13.5575 3.88394C14.2073 3.23418 15.0885 2.8691 16.0075 2.8691C16.9264 2.8691 17.8077 3.23418 18.4575 3.88394C19.1073 4.5337 19.4723 5.41504 19.4723 6.33394C19.4723 7.25284 19.1073 8.13418 18.4575 8.78394L15.1236 12.116Z" fill="#888A91"/>
<path d="M2.45667 19.8841C3.57589 21.0009 5.09247 21.6282 6.67367 21.6282C8.25485 21.6282 9.77147 21.0009 10.8907 19.8841L14.2247 16.5511C14.5405 16.2352 14.6639 15.7749 14.5483 15.3435C14.4327 14.9121 14.0957 14.575 13.6643 14.4595C13.2328 14.3439 12.7725 14.4672 12.4567 14.783L9.12371 18.116C8.47395 18.7658 7.59269 19.1309 6.67371 19.1309C5.75481 19.1309 4.87355 18.7658 4.22371 18.116C3.57395 17.4663 3.20895 16.5849 3.20895 15.666C3.20895 14.7471 3.57395 13.8658 4.22371 13.216L7.55671 9.88302C7.80593 9.65216 7.95039 9.32982 7.95695 8.99012C7.96344 8.65044 7.83148 8.32278 7.59133 8.08246C7.35118 7.84214 7.02351 7.70996 6.68383 7.71628C6.34423 7.72261 6.02173 7.86699 5.79071 8.11604L2.45671 11.449C1.33999 12.5686 0.712891 14.0852 0.712891 15.6666C0.712891 17.248 1.33999 18.7646 2.45671 19.8842L2.45667 19.8841Z" fill="#888A91"/>
</svg>
