<?xml version="1.0" encoding="utf-8"?>
<!-- Generator: Adobe Illustrator 25.2.1, SVG Export Plug-In . SVG Version: 6.00 Build 0)  -->
<svg version="1.1" id="Capa_1" xmlns="http://www.w3.org/2000/svg" xmlns:xlink="http://www.w3.org/1999/xlink" x="0px" y="0px"
	 viewBox="0 0 464.5 487.6" style="enable-background:new 0 0 464.5 487.6;" xml:space="preserve">
<path d="M461.6,154.7l-37.1-65.3c-2-3.5-5.2-6.2-9-7.7c-3.8-1.4-8-1.5-11.8-0.2l-52.5,17.5c-15.7-13-33.4-23.4-52.5-30.6L287.8,14v0
	c-0.8-4-3-7.6-6.2-10.2c-3.2-2.6-7.2-3.9-11.3-3.8h-75.2c-4.1-0.1-8.1,1.3-11.3,3.8c-3.2,2.6-5.4,6.2-6.2,10.2l-11.2,54.8
	c-19.1,7.3-36.8,17.6-52.5,30.6L61.4,81.9c-3.9-1.6-8.3-1.8-12.4-0.4c-4,1.4-7.4,4.2-9.5,7.9L2.4,154.7c-2.1,3.5-2.8,7.7-2.1,11.7
	c0.7,4,2.7,7.7,5.8,10.4l41.6,36.4h0c-1.7,10.1-2.6,20.4-2.6,30.6c0,10.3,0.9,20.6,2.6,30.8L5.9,311.2c-3,2.7-5,6.3-5.7,10.3
	c-0.6,4,0.1,8.1,2.2,11.6l37.1,65.3c2,3.5,5.2,6.2,9,7.6c3.8,1.4,8,1.4,11.8,0.1l52.5-17.5c15.7,13.1,33.4,23.5,52.5,30.8l10.9,54.2
	c0.8,4,3,7.6,6.2,10.2c3.2,2.6,7.2,3.9,11.3,3.8h75.1c4.7,0,9.3-1.9,12.6-5.2c2.4-2.4,4.1-5.5,4.7-8.9l2.8-12.9v-1.2l8.8-40.4
	c19-7.4,36.7-17.7,52.5-30.6l52.5,17.5c3.9,1.6,8.3,1.8,12.3,0.4c4-1.4,7.4-4.1,9.6-7.8l37.6-65.3c2-3.5,2.8-7.6,2.2-11.6
	c-0.6-4-2.6-7.6-5.7-10.3L417,274.4c1.4-10.1,2.1-20.4,1.9-30.6c0-10-0.7-19.9-2.3-29.8c0.1-0.3,0.1-0.6,0-0.9l41.6-36.6
	c3-2.7,5-6.4,5.6-10.3C464.4,162.2,463.6,158.2,461.6,154.7L461.6,154.7z M232,331.3c-23.2,0-45.5-9.2-61.9-25.6
	s-25.6-38.7-25.6-61.9s9.2-45.5,25.6-61.9s38.7-25.6,61.9-25.6s45.5,9.2,61.9,25.6s25.6,38.7,25.6,61.9s-9.2,45.5-25.6,61.9
	S255.2,331.3,232,331.3z"/>
</svg>
