<?xml version="1.0" encoding="UTF-8"?>
<svg width="700pt" height="700pt" version="1.1" viewBox="0 0 700 700" xmlns="http://www.w3.org/2000/svg">
 <path d="m579.6 190.93-37.102-65.277c-2.0195-3.5234-5.1992-6.2383-9-7.6758-3.7969-1.4375-7.9805-1.5078-11.824-0.19922l-52.5 17.5c-15.691-13.031-33.434-23.379-52.5-30.625l-10.852-54.426v0.003906c-0.81641-4.0156-3.0156-7.6133-6.2148-10.172-3.1953-2.5547-7.1914-3.9141-11.285-3.8281h-75.25c-4.0938-0.085937-8.0859 1.2734-11.285 3.8281-3.1953 2.5586-5.3945 6.1562-6.2148 10.172l-11.199 54.773c-19.051 7.2812-36.785 17.625-52.5 30.625l-52.5-17.5c-3.9375-1.6211-8.332-1.7539-12.359-0.36719-4.0273 1.3867-7.4102 4.1914-9.5156 7.8906l-37.102 65.277c-2.0547 3.5273-2.8125 7.6602-2.1406 11.688 0.67188 4.0273 2.7305 7.6914 5.8164 10.363l41.648 36.398h0.003906c-1.7422 10.117-2.6211 20.359-2.625 30.625 0.011719 10.32 0.89063 20.625 2.625 30.801l-41.828 36.574c-3.0156 2.6836-5.0117 6.3281-5.6523 10.312-0.63672 3.9883 0.125 8.0703 2.1523 11.562l37.102 65.273c2.043 3.4961 5.2383 6.1719 9.0352 7.5781 3.7969 1.4023 7.9648 1.4453 11.789 0.125l52.5-17.5c15.711 13.051 33.441 23.457 52.5 30.797l10.852 54.25c0.81641 4.0156 3.0156 7.6133 6.2148 10.172 3.1953 2.5547 7.1914 3.9141 11.285 3.8281h75.074c4.7383 0.027343 9.2852-1.8633 12.602-5.25 2.418-2.4453 4.0586-5.5469 4.7227-8.9219l2.8008-12.949v-1.2266l8.75-40.426c19.004-7.3789 36.723-17.715 52.5-30.625l52.5 17.5c3.918 1.6367 8.2969 1.793 12.32 0.44141 4.0234-1.3516 7.4219-4.1211 9.5547-7.793l37.625-65.273c2.0312-3.4922 2.7891-7.5742 2.1523-11.562-0.63672-3.9844-2.6367-7.6289-5.6523-10.312l-41.648-36.75c1.4062-10.145 2.0508-20.383 1.9219-30.625 0.046874-9.9609-0.71484-19.91-2.2734-29.75 0.10938-0.28125 0.10938-0.59375 0-0.875l41.648-36.574c2.9922-2.707 4.9531-6.3594 5.5586-10.348 0.60547-3.9844-0.18359-8.0586-2.2305-11.527zm-229.6 176.57c-23.207 0-45.461-9.2188-61.871-25.629s-25.629-38.664-25.629-61.871 9.2188-45.461 25.629-61.871 38.664-25.629 61.871-25.629 45.461 9.2188 61.871 25.629 25.629 38.664 25.629 61.871-9.2188 45.461-25.629 61.871-38.664 25.629-61.871 25.629z"/>
</svg>
