<?xml version="1.0" encoding="UTF-8"?>
<svg width="700pt" height="700pt" version="1.1" viewBox="0 0 700 700" xmlns="http://www.w3.org/2000/svg">
 <path d="m466.67 385c-20.84 0-40.098-11.117-50.52-29.168-10.422-18.047-10.422-40.285 0-58.332 10.422-18.047 29.68-29.168 50.52-29.168h116.67l-0.003907-35c-0.019531-18.559-7.4023-36.352-20.523-49.473-13.125-13.125-30.918-20.504-49.477-20.527h-326.66c-6.1875-0.003906-12.121-2.4609-16.496-6.8359s-6.8359-10.309-6.8398-16.496c-0.011719-6.293 2.5781-12.312 7.1562-16.633 4.2578-4.3398 10.102-6.7578 16.18-6.6992h326.66c6.1875 0.003906 12.121 2.4609 16.496 6.8359s6.8359 10.309 6.8398 16.496c0 8.3359 4.4453 16.039 11.664 20.207s16.117 4.168 23.336 0 11.664-11.871 11.664-20.207c-0.019531-18.559-7.4023-36.352-20.523-49.477-13.125-13.121-30.918-20.504-49.477-20.523h-326.66c-18.477-0.14844-36.219 7.2031-49.176 20.371-13.41 13.016-20.934 30.941-20.824 49.629v280c0.019531 18.559 7.4023 36.352 20.523 49.477 13.125 13.121 30.918 20.504 49.477 20.523h326.66c18.559-0.019531 36.352-7.4023 49.477-20.523 13.121-13.125 20.504-30.918 20.523-49.477v-35zm-280 58.332c-6.1875-0.003906-12.121-2.4609-16.496-6.8359s-6.8359-10.309-6.8398-16.496v-213.99c7.4961 2.6445 15.387 3.9922 23.336 3.9883zm280-151.67h116.67v70l-116.67 0.003907c-12.504 0-24.059-6.6719-30.312-17.5-6.25-10.832-6.25-24.172 0-35 6.2539-10.832 17.809-17.5 30.312-17.5z"/>
</svg>
