<?xml version="1.0" encoding="utf-8"?>
<!-- Generator: Adobe Illustrator 25.2.1, SVG Export Plug-In . SVG Version: 6.00 Build 0)  -->
<svg version="1.1" id="Capa_1" xmlns="http://www.w3.org/2000/svg" xmlns:xlink="http://www.w3.org/1999/xlink" x="0px" y="0px"
	 viewBox="0 0 466.7 420" style="enable-background:new 0 0 466.7 420;" xml:space="preserve">
<path d="M350,315c-20.8,0-40.1-11.1-50.5-29.2c-10.4-18-10.4-40.3,0-58.3s29.7-29.2,50.5-29.2h116.7l0-35c0-18.6-7.4-36.4-20.5-49.5
	c-13.1-13.1-30.9-20.5-49.5-20.5H70c-6.2,0-12.1-2.5-16.5-6.8S46.7,76.2,46.7,70c0-6.3,2.6-12.3,7.2-16.6c4.3-4.3,10.1-6.8,16.2-6.7
	h326.7c6.2,0,12.1,2.5,16.5,6.8S420,63.8,420,70c0,8.3,4.4,16,11.7,20.2s16.1,4.2,23.3,0s11.7-11.9,11.7-20.2
	c0-18.6-7.4-36.4-20.5-49.5C433,7.4,415.2,0,396.7,0H70C51.5-0.1,33.8,7.2,20.8,20.4C7.4,33.4-0.1,51.3,0,70v280
	c0,18.6,7.4,36.4,20.5,49.5C33.6,412.6,51.4,420,70,420h326.7c18.6,0,36.4-7.4,49.5-20.5c13.1-13.1,20.5-30.9,20.5-49.5v-35L350,315
	z M70,373.3c-6.2,0-12.1-2.5-16.5-6.8s-6.8-10.3-6.8-16.5V136c7.5,2.6,15.4,4,23.3,4L70,373.3z M350,221.7h116.7v70l-116.7,0
	c-12.5,0-24.1-6.7-30.3-17.5c-6.2-10.8-6.2-24.2,0-35C325.9,228.3,337.5,221.7,350,221.7L350,221.7z"/>
</svg>
